# File created by Blade
# Date/Time:  Wed Jan 21 17:57:11 2015
# Frame Rate: 120.000 fps
#------------------------------------------------------
:FULLY-SPECIFIED
:DEGREES
273
root 18.121566 33.070767 -20.793144 -163.440849 0.934305 -181.358517
Spine 6.444416 4.617649 -13.385154
Head 121.488822 8.774284 187.600751
LeftShoulder 1.208508 -19.362827 -3.952724
LeftArm 5.720559 27.408242 -55.807853
LeftForeArm 2.800856 -0.000000 9.580849
LeftHand 2.208572 0.000000 -1.236119
LeftHandThumb1 -26.253704 0.000000 33.147579
RightShoulder -2.821008 -13.319791 8.840929
RightArm 30.782805 -14.083660 58.458615
RightForeArm -24.975413 -0.000000 19.582502
RightHand -3.274818 0.000000 -5.149046
RightHandThumb1 -24.326973 -0.000000 -32.862282
LeftUpLeg -12.595907 10.913925 17.763751
LeftLeg -0.181356 -0.000000 0.000000
LeftFoot -14.641940 24.939420 -20.734324
LeftToeBase 28.012451 -0.000000 -0.000000
RightUpLeg -14.923331 -15.779038 -22.121920
RightLeg 2.866512 -0.000000 -0.000000
RightFoot -9.305887 -11.201449 29.029574
RightToeBase 23.274413 -0.000000 -0.000000
274
root 18.170633 33.042483 -20.692958 -162.818275 1.001224 -181.368337
Spine 6.651097 4.291269 -13.125801
Head 121.873588 8.329692 187.429237
LeftShoulder 1.532485 -19.312079 -4.277006
LeftArm 6.198149 27.746568 -55.963939
LeftForeArm 2.642050 -0.000000 9.228412
LeftHand 2.231770 -0.000000 -1.152085
LeftHandThumb1 -26.253704 0.000000 33.147579
RightShoulder -2.208087 -13.000306 8.753595
RightArm 31.443786 -14.452261 57.769319
RightForeArm -25.087929 -0.000000 19.469985
RightHand -3.254413 -0.000000 -5.389448
RightHandThumb1 -24.326973 -0.000000 -32.862282
LeftUpLeg -13.192568 10.512724 18.008441
LeftLeg -0.271505 -0.000000 0.000000
LeftFoot -14.523074 24.770614 -20.958235
LeftToeBase 27.825211 -0.000000 -0.000000
RightUpLeg -15.372720 -15.456894 -22.173539
RightLeg 2.372710 -0.000000 -0.000000
RightFoot -9.344252 -11.064428 28.782501
RightToeBase 23.653739 -0.000000 -0.000000
275
root 18.217955 33.015776 -20.590408 -162.208119 0.997279 -181.327965
Spine 6.920920 3.945604 -12.747669
Head 122.307539 7.843405 187.280702
LeftShoulder 1.954334 -19.499972 -4.659957
LeftArm 6.406214 28.169593 -56.230078
LeftForeArm 2.685599 -0.000000 9.015234
LeftHand 2.115055 -0.000000 -0.448232
LeftHandThumb1 -26.253704 0.000000 33.147579
RightShoulder -1.588949 -12.738854 8.689780
RightArm 32.059670 -14.858314 56.922686
RightForeArm -25.078471 -0.000000 19.563160
RightHand -3.483685 -0.000000 -5.523837
RightHandThumb1 -24.326973 -0.000000 -32.862282
LeftUpLeg -13.806599 9.989987 18.347486
LeftLeg -0.331927 -0.000000 0.000000
LeftFoot -14.474601 24.690027 -21.140688
LeftToeBase 27.763497 -0.000000 -0.000000
RightUpLeg -15.775513 -15.273008 -22.165319
RightLeg 1.860876 -0.000000 -0.000000
RightFoot -9.204018 -10.830026 28.736970
RightToeBase 23.692577 -0.000000 -0.000000
276
root 18.263080 32.990622 -20.484553 -161.622002 1.084850 -181.237092
Spine 7.230143 3.720815 -12.349520
Head 122.708721 7.486140 187.018546
LeftShoulder 2.368534 -19.629083 -5.017064
LeftArm 6.758562 28.521773 -56.438971
LeftForeArm 2.708106 -0.000000 8.798434
LeftHand 2.097365 -0.000000 -0.184015
LeftHandThumb1 -26.253704 0.000000 33.147579
RightShoulder -0.981306 -12.400211 8.614167
RightArm 32.755921 -15.292285 56.078105
RightForeArm -25.032237 0.000000 19.346650
RightHand -3.296497 -0.000000 -5.771049
RightHandThumb1 -24.326973 -0.000000 -32.862282
LeftUpLeg -14.349011 9.664049 18.688599
LeftLeg -0.416863 -0.000000 0.000000
LeftFoot -14.425583 24.562537 -21.322748
LeftToeBase 27.643221 -0.000000 -0.000000
RightUpLeg -16.282592 -15.122060 -22.089873
RightLeg 1.455905 -0.000000 -0.000000
RightFoot -8.978980 -10.504278 28.649605
RightToeBase 23.614212 -0.000000 -0.000000
277
root 18.305977 32.968914 -20.374515 -161.005759 1.137011 -181.135776
Spine 7.534125 3.496547 -11.909909
Head 123.091015 7.171086 186.642946
LeftShoulder 2.810881 -19.728654 -5.406841
LeftArm 7.162794 28.912082 -56.572652
LeftForeArm 2.575373 0.000000 8.682132
LeftHand 2.052001 0.000000 -0.041077
LeftHandThumb1 -26.253704 0.000000 33.147579
RightShoulder -0.387917 -12.130412 8.496141
RightArm 33.586615 -15.744129 55.183085
RightForeArm -24.830667 -0.000000 19.021101
RightHand -3.399664 -0.000000 -5.970289
RightHandThumb1 -24.326973 -0.000000 -32.862282
LeftUpLeg -14.942627 9.388864 19.036248
LeftLeg -0.521361 -0.000000 0.000000
LeftFoot -14.460173 24.428091 -21.714898
LeftToeBase 27.496381 -0.000000 -0.000000
RightUpLeg -16.776336 -14.981718 -22.002837
RightLeg 1.003461 -0.000000 -0.000000
RightFoot -8.658527 -10.119590 28.645892
RightToeBase 23.541482 -0.000000 -0.000000
278
root 18.345591 32.945139 -20.268366 -160.434690 1.203462 -180.962568
Spine 7.876432 3.247771 -11.380979
Head 123.417415 6.802842 186.242447
LeftShoulder 3.216604 -19.839467 -5.805783
LeftArm 7.551205 29.391953 -56.674376
LeftForeArm 2.443815 -0.000000 8.625991
LeftHand 2.021028 -0.000000 0.283581
LeftHandThumb1 -26.253704 0.000000 33.147579
RightShoulder 0.378273 -11.877099 8.353408
RightArm 34.220727 -15.889784 54.442253
RightForeArm -24.884187 -0.000000 18.849206
RightHand -3.329563 -0.000000 -5.889512
RightHandThumb1 -24.326973 -0.000000 -32.862282
LeftUpLeg -15.454862 9.257791 19.432930
LeftLeg -0.663638 -0.000000 0.000000
LeftFoot -14.386241 24.200745 -21.824219
LeftToeBase 27.642028 -0.000000 -0.000000
RightUpLeg -17.220674 -14.847426 -21.863142
RightLeg 0.518409 -0.000000 -0.000000
RightFoot -8.244247 -9.607203 28.834484
RightToeBase 22.862624 -0.000000 -0.000000
279
root 18.383090 32.922172 -20.158429 -159.817310 1.226034 -180.751169
Spine 8.201456 2.995856 -10.765572
Head 123.770474 6.273311 185.914562
LeftShoulder 3.699896 -20.002627 -6.221668
LeftArm 7.829960 29.695667 -56.834020
LeftForeArm 2.430876 -0.000000 8.710879
LeftHand 1.841492 -0.000000 0.577211
LeftHandThumb1 -26.253704 0.000000 33.147579
RightShoulder 1.097903 -11.583523 8.154487
RightArm 34.852273 -16.166387 53.650897
RightForeArm -24.903997 -0.000000 18.707754
RightHand -3.375184 -0.000000 -5.892976
RightHandThumb1 -24.326973 -0.000000 -32.862282
LeftUpLeg -16.051834 9.169204 19.857790
LeftLeg -0.755845 -0.000000 0.000000
LeftFoot -14.275313 23.942772 -21.812439
LeftToeBase 27.699331 -0.000000 -0.000000
RightUpLeg -17.685526 -14.755600 -21.668516
RightLeg -0.008636 -0.000000 0.000000
RightFoot -7.863123 -9.233357 28.768403
RightToeBase 23.081427 -0.000000 -0.000000
